<?xml version="1.0"?>
<!DOCTYPE svg PUBLIC "-//W3C//DTD SVG 1.1//EN" "http://www.w3.org/Graphics/SVG/1.1/DTD/svg11.dtd">
<svg version="1.1" xmlns="http://www.w3.org/2000/svg" xmlns:xlink="http://www.w3.org/1999/xlink" width="4in" height="4in" viewBox="0 0 600 600" preserveAspectRatio="xMidYMid">
<defs>
	<path id="oct" d="M 0,50 L 100,50 M 50,0 L 50,100 M 17,17 L 83,83 M 17,83 L 83, 17 M 0,50 L 17,17 50,0 83,17 100,50 83,83 50,100 17,83 Z" stroke="black" fill="none"/>
	<path id="base" d="M 0,100 L 100,100 50,0 Z" stroke="black"/>
	<rect id="belka" fill="red" stroke="black" x="0" y="0" width="200" height="20"/>
</defs>
	<g transform = "rotate(45,50,50)">
		<animateTransform attributeName="transform" type="rotate"
			from="0,50,50" to="360,50,50" dur="5s" repeatCount="indefinite"/>
		<use xlink:href="#oct" x ="0" y="0"/>
	</g>
	<g>
		<animateTransform attributeName="transform" type="rotate"
			from="0,200,70" to="360,200,75" dur="5s" repeatCount="indefinite"/>
		<use xlink:href="#oct" x ="150" y="25"/>
	</g>
	<g>
		<animateTransform attributeName="transform" type="rotate"
			from="0,350,100" to="360,350,100" dur="5s" repeatCount="indefinite"/>
		<use xlink:href="#oct" x ="300" y="50"/>
	</g>
	<g>	
		<animateTransform attributeName="transform" type="rotate"
			from="0,550,175" to="360,550,175" dur="5s" repeatCount="indefinite"/>
		<use xlink:href="#oct" x ="500" y="125"/>
	</g>
	<g>
		<animateTransform attributeName="transform" type="rotate"
			from="0,250,300" to="360,250,300" dur="5s" repeatCount="indefinite"/>
		<use xlink:href="#oct" x ="200" y="250"/>
	</g>
	<g>
		<animateTransform attributeName="transform" type="rotate"
			from="0,450,350" to="360,450,350" dur="5s" repeatCount="indefinite"/>
		<use xlink:href="#oct" x ="400" y="300"/>
	</g>
	<g >
		<use xlink:href="#belka" transform="rotate(10,0,0) translate(50,25) scale(0.85,1)"/>
		<use transform="scale(0.7,1.5) translate(125,40)" fill="blue" xlink:href="#base"/>

		<use xlink:href="#belka" transform="rotate(20,400,75) translate(350,110) scale(1.2,1)"/>
		<use transform="scale(0.7,1.5) translate(600,100)" fill="green" xlink:href="#base"/>

		<use xlink:href="#belka" transform="rotate(14,0,0) translate(310,220) scale(1.1,1)"/>
		<use transform="scale(0.7,2) translate(450,165)" fill="purple" xlink:href="#base"/>
	</g>
</svg>
